<svg id="Layer_2" height="512" viewBox="0 0 128 128" width="512" xmlns="http://www.w3.org/2000/svg" data-name="Layer 2"><path d="m99.853 37.428h-6.744a34.334 34.334 0 0 1 -21.466-7.553 73.784 73.784 0 0 1 -7.643 29.854 73.784 73.784 0 0 1 -7.643-29.854 34.334 34.334 0 0 1 -21.466 7.553h-6.744a50.8 50.8 0 0 0 -17.113 38 50.818 50.818 0 0 0 50.819 50.822h4.294a50.818 50.818 0 0 0 50.819-50.819 50.8 50.8 0 0 0 -17.113-38.003z" fill="#f43d58"/><path d="m104.263 35.517a34.348 34.348 0 0 0 -27.71-14.053h-8.672a12.082 12.082 0 0 1 12.065-11.964h1.009v-7.75h-1.009a19.841 19.841 0 0 0 -19.816 19.714h-8.683a34.348 34.348 0 0 0 -27.71 14.053l-1.4 1.911h12.554a34.334 34.334 0 0 0 21.466-7.553 73.784 73.784 0 0 0 7.643 29.854 73.784 73.784 0 0 0 7.643-29.854 34.334 34.334 0 0 0 21.466 7.553h12.552z" fill="#60d882"/><path d="m116.4 83.276a1.752 1.752 0 0 0 -2.047 1.392c-.168.885-.363 1.772-.578 2.636a1.75 1.75 0 1 0 3.4.845c.23-.927.438-1.878.62-2.826a1.752 1.752 0 0 0 -1.395-2.047z"/><path d="m104.16 39.178h1.5a1.75 1.75 0 0 0 1.411-2.784l-1.4-1.911a36.22 36.22 0 0 0 -29.118-14.769h-6.753a10.357 10.357 0 0 1 10.147-8.463h1.009a1.751 1.751 0 0 0 1.75-1.75v-7.751a1.751 1.751 0 0 0 -1.751-1.75h-1.009a21.624 21.624 0 0 0 -21.487 19.714h-7.012a1.75 1.75 0 0 0 0 3.5h8.683a1.75 1.75 0 0 0 1.75-1.741 18.113 18.113 0 0 1 17.325-17.958v4.256a13.863 13.863 0 0 0 -13.074 13.677 1.75 1.75 0 0 0 1.75 1.766h8.672a32.715 32.715 0 0 1 25.635 12.464h-9.079a32.708 32.708 0 0 1 -20.372-7.169 1.751 1.751 0 0 0 -2.843 1.291 71.539 71.539 0 0 1 -5.894 25.785 71.539 71.539 0 0 1 -5.894-25.785 1.751 1.751 0 0 0 -2.843-1.295 32.708 32.708 0 0 1 -20.372 7.169h-9.079a32.462 32.462 0 0 1 14.705-10.574 1.75 1.75 0 0 0 -1.174-3.3 35.96 35.96 0 0 0 -17.017 12.683l-1.4 1.911a1.75 1.75 0 0 0 1.411 2.784h1.5a52.527 52.527 0 0 0 38.016 88.822h4.294a52.71 52.71 0 0 0 47.879-30.835 1.75 1.75 0 1 0 -3.186-1.448 49.2 49.2 0 0 1 -44.693 28.783h-4.294a49.048 49.048 0 0 1 -33.035-85.322h6.073a36.219 36.219 0 0 0 19.916-6.01 74.941 74.941 0 0 0 7.626 27.339 1.749 1.749 0 0 0 3.134 0 74.941 74.941 0 0 0 7.626-27.339 36.219 36.219 0 0 0 19.916 6.01h6.073a49.088 49.088 0 0 1 16.034 36.254 1.75 1.75 0 0 0 3.5 0 52.568 52.568 0 0 0 -14.556-36.254z"/></svg>